<?xml version="1.0" standalone="no"?>
<!DOCTYPE svg PUBLIC "-//W3C//DTD SVG 20010904//EN"
 "http://www.w3.org/TR/2001/REC-SVG-20010904/DTD/svg10.dtd">
<svg version="1.0" xmlns="http://www.w3.org/2000/svg"
 width="747.000000pt" height="747.000000pt" viewBox="0 0 747.000000 747.000000"
 preserveAspectRatio="xMidYMid meet">
<metadata>
Created by potrace 1.14, written by Peter Selinger 2001-2017
</metadata>
<g transform="translate(0.000000,747.000000) scale(0.100000,-0.100000)"
fill="#000000" stroke="none">
<path d="M5789 5756 c-2 -2 -38 -7 -79 -10 -41 -4 -84 -9 -95 -11 -11 -3 -36
-7 -55 -10 -338 -49 -715 -226 -988 -462 l-32 -28 66 -170 c36 -93 72 -183 79
-200 6 -16 41 -104 76 -193 51 -131 66 -160 74 -147 61 103 194 251 295 330
164 127 407 233 595 260 22 3 65 9 95 14 57 9 350 8 366 -1 5 -3 32 -8 60 -12
112 -13 357 -101 433 -156 16 -11 32 -20 36 -20 13 0 158 -113 223 -174 37
-35 70 -66 73 -67 4 -2 38 25 76 61 38 36 136 128 217 205 82 77 153 143 158
146 19 12 -59 98 -197 215 -205 176 -524 327 -805 383 -83 17 -94 19 -142 26
-23 3 -56 9 -73 11 -37 6 -450 15 -456 10z"/>
<path d="M2575 5715 c-34 -33 -33 -78 1 -110 l27 -25 323 0 324 0 0 -129 0
-129 -474 0 c-261 0 -484 -3 -494 -6 -43 -14 -52 -107 -15 -138 12 -10 116
-13 497 -13 l481 0 0 -130 0 -130 -243 0 c-277 0 -272 1 -272 -82 0 -78 0 -78
281 -78 l246 0 16 -40 c8 -22 61 -175 117 -340 56 -165 105 -309 110 -320 5
-11 24 -67 44 -125 33 -98 207 -607 219 -640 28 -74 234 -670 305 -880 147
-433 192 -563 197 -568 8 -8 880 -6 884 2 4 9 12 -12 -346 946 -492 1317 -753
2012 -888 2375 -70 187 -147 395 -173 463 l-46 122 -548 0 -549 0 -24 -25z"/>
<path d="M1642 4413 c-4 -1 -19 -4 -34 -7 -30 -7 -57 -49 -52 -79 4 -29 33
-67 52 -68 9 -1 344 -2 744 -3 l728 -1 24 65 c13 36 27 72 30 80 6 13 -81 15
-739 15 -410 0 -748 -1 -753 -2z"/>
<path d="M1729 3833 c-20 -5 -47 -53 -43 -78 5 -34 26 -63 48 -68 11 -3 81 -5
154 -6 145 -1 184 9 196 51 10 39 7 54 -19 82 -24 26 -24 26 -172 25 -81 -1
-155 -3 -164 -6z"/>
<path d="M2311 3823 c-12 -10 -24 -35 -27 -55 -5 -30 -2 -41 19 -62 l25 -25
263 2 264 2 21 55 c12 30 25 65 29 78 l6 22 -289 0 c-261 0 -292 -2 -311 -17z"/>
<path d="M834 3272 c-69 -13 -87 -115 -25 -146 20 -10 216 -12 926 -12 l899 1
28 74 c16 41 26 76 23 79 -5 6 -1820 9 -1851 4z"/>
<path d="M6925 2834 c-172 -162 -363 -268 -583 -323 -120 -31 -136 -33 -317
-36 -164 -3 -312 10 -389 36 -39 12 -42 6 -23 -38 15 -36 88 -224 192 -493 27
-69 50 -127 52 -129 5 -6 226 -4 302 4 113 10 223 26 291 41 36 8 76 17 90 20
69 14 278 92 376 140 183 89 312 182 469 337 l90 88 -95 91 c-144 138 -302
287 -335 318 l-30 28 -90 -84z"/>
<path d="M1179 2773 c-57 -24 -63 -91 -13 -127 26 -18 54 -19 646 -20 453 -1
622 2 629 10 16 19 59 137 53 143 -3 3 -294 6 -646 6 -478 0 -648 -3 -669 -12z"/>
<path d="M1534 2352 c-52 -8 -65 -14 -78 -40 -17 -34 -11 -71 14 -97 18 -17
36 -20 158 -22 75 -1 151 2 168 8 59 18 70 101 19 135 -20 13 -52 17 -144 18
-64 0 -126 0 -137 -2z"/>
<path d="M2101 2349 c-63 -13 -87 -79 -46 -127 22 -25 28 -27 128 -28 l105 -2
30 79 c19 50 26 79 18 80 -53 4 -211 3 -235 -2z"/>
<path d="M38 1960 c-35 -27 -40 -72 -12 -107 l22 -28 1040 -3 1040 -2 27 67
c15 38 29 74 32 81 4 9 -212 12 -1060 12 -1046 0 -1065 0 -1089 -20z"/>
</g>
</svg>
